<svg xmlns="http://www.w3.org/2000/svg" width="240.000000pt" viewBox="0 0 1013.000000 289.000000"
 preserveAspectRatio="xMidYMid meet">

<g transform="translate(0.000000,289.000000) scale(0.100000,-0.100000)"
fill="#FFFFFF" stroke="none">
<path d="M573 2870 c-61 -37 -81 -116 -43 -177 22 -36 66 -63 105 -63 22 0 25
-4 25 -33 0 -31 -3 -33 -50 -44 -62 -15 -101 -42 -132 -91 -23 -37 -23 -41
-26 -379 l-3 -341 -172 -4 c-192 -3 -219 -11 -256 -71 -58 -94 0 -203 116
-222 l43 -7 0 -616 c0 -404 4 -630 11 -655 13 -49 73 -115 124 -138 37 -17 79
-19 575 -19 603 0 580 -2 652 78 46 51 58 93 58 204 l0 86 148 4 c124 3 154 7
194 25 66 30 129 92 164 160 l29 58 3 220 c3 205 2 225 -18 277 -26 71 -91
145 -162 183 -50 28 -60 30 -203 35 l-150 5 -3 47 -3 46 43 7 c60 10 93 29
117 68 46 74 17 172 -62 207 -36 17 -66 20 -204 20 l-162 0 -3 343 c-3 338 -3
342 -26 379 -31 49 -70 76 -132 91 -47 11 -50 13 -50 44 0 29 3 33 28 33 37 0
88 33 107 69 31 61 11 136 -48 171 -30 19 -52 20 -317 20 -265 0 -287 -1 -317
-20z m597 -80 c24 -24 25 -38 3 -62 -15 -17 -37 -18 -284 -18 -265 0 -268 0
-283 22 -20 29 -20 34 4 58 19 19 33 20 280 20 247 0 261 -1 280 -20z m-140
-195 l0 -35 -140 0 -140 0 0 35 0 35 140 0 140 0 0 -35z m181 -154 l29 -29 0
-336 0 -336 -350 0 -350 0 0 336 0 336 29 29 29 29 292 0 292 0 29 -29z m469
-811 c11 -11 20 -29 20 -40 0 -11 -9 -29 -20 -40 -20 -20 -33 -20 -790 -20
-757 0 -770 0 -790 20 -11 11 -20 29 -20 40 0 11 9 29 20 40 20 20 33 20 790
20 757 0 770 0 790 -20z m-1230 -232 c0 -24 11 -66 24 -94 25 -53 58 -83 115
-102 48 -17 550 -16 605 0 79 24 136 108 136 202 l0 36 95 0 95 0 -2 -342 -3
-343 -102 -3 c-90 -2 -104 -5 -113 -22 -8 -14 -8 -26 0 -40 9 -17 23 -20 113
-22 l102 -3 0 -237 c0 -223 -1 -238 -21 -264 -11 -15 -33 -37 -48 -48 -27 -21
-38 -21 -556 -21 -518 0 -529 0 -556 21 -15 11 -37 33 -48 48 -20 26 -21 41
-21 264 l0 237 469 5 c432 5 470 6 480 23 8 12 8 22 0 35 -10 16 -48 17 -480
22 l-469 5 -3 343 -2 342 95 0 95 0 0 -42z m790 -9 c0 -43 -5 -55 -29 -80
l-29 -29 -292 0 -292 0 -29 31 c-24 26 -29 40 -29 80 l0 49 350 0 350 0 0 -51z
m660 -150 c55 -25 105 -71 133 -124 19 -36 22 -59 25 -227 5 -232 -5 -276 -77
-348 -64 -64 -118 -80 -268 -80 l-113 0 0 44 0 44 123 4 c114 3 127 5 164 30
72 47 83 86 83 284 l0 170 -29 47 c-46 71 -91 90 -228 95 l-113 4 0 39 0 39
128 0 c106 0 134 -4 172 -21z m-70 -164 c51 -26 60 -58 60 -215 0 -210 -16
-230 -190 -230 l-100 0 0 230 0 230 100 0 c71 0 110 -5 130 -15z"/>
<path d="M812 2378 c-16 -16 -15 -43 2 -57 23 -19 146 -10 160 12 8 12 8 22 0
35 -14 22 -142 30 -162 10z"/>
<path d="M816 2214 c-40 -39 -5 -74 74 -74 62 0 90 15 90 50 0 27 -30 40 -94
40 -36 0 -60 -5 -70 -16z"/>
<path d="M816 2054 c-39 -39 -5 -74 70 -74 64 0 94 13 94 40 0 35 -28 50 -90
50 -40 0 -64 -5 -74 -16z"/>
<path d="M812 1888 c-16 -16 -15 -43 2 -57 23 -19 146 -10 160 12 8 12 8 22 0
35 -14 22 -142 30 -162 10z"/>
<path d="M845 1125 c-43 -21 -98 -117 -98 -169 0 -85 59 -146 143 -146 62 0
106 29 131 86 25 55 20 88 -27 166 -45 74 -89 92 -149 63z m83 -115 c26 -46
28 -77 5 -102 -32 -36 -103 -10 -103 38 0 33 41 104 60 104 8 0 25 -18 38 -40z"/>
<path d="M8705 2857 c-79 -36 -125 -133 -104 -220 13 -55 70 -122 114 -133 24
-6 25 -9 25 -80 l0 -74 -179 0 c-202 0 -260 -8 -348 -50 -142 -66 -243 -231
-243 -396 l0 -34 -82 0 c-111 0 -140 -15 -202 -107 -37 -54 -47 -77 -42 -95 3
-13 84 -91 191 -183 l184 -160 1 -560 c1 -441 4 -568 14 -598 22 -60 62 -104
120 -131 l55 -26 576 0 576 0 54 25 c100 48 135 124 135 297 l0 108 150 0
c129 0 157 3 207 22 80 29 162 112 192 192 21 58 22 68 19 445 l-3 386 -36 65
c-23 43 -52 78 -85 102 -78 60 -119 70 -291 76 l-153 4 0 25 c0 14 9 36 20 50
28 35 34 83 22 165 -28 186 -168 333 -351 368 -30 5 -134 10 -232 10 l-179 0
0 73 0 72 42 20 c121 59 135 232 25 319 -31 25 -48 31 -100 33 -38 2 -74 -2
-92 -10z m114 -88 c35 -12 61 -53 61 -94 0 -42 -50 -85 -98 -85 -95 0 -125
130 -41 176 30 16 38 17 78 3z m492 -552 c109 -53 178 -156 187 -279 l5 -68
-717 0 -716 0 0 48 c0 139 92 268 222 313 49 17 88 19 508 16 l455 -2 56 -28z
m-1291 -602 c0 -85 -3 -155 -6 -155 -5 0 -171 142 -252 215 -12 10 -9 20 13
54 l28 41 108 0 109 0 0 -155z m720 -44 l0 -199 -52 -13 c-70 -17 -266 -14
-359 5 -41 9 -103 30 -139 48 l-65 33 -3 163 -2 162 310 0 310 0 0 -199z m710
38 c0 -148 -1 -160 -17 -155 -81 22 -255 35 -349 26 -68 -7 -156 -31 -236 -65
-17 -7 -18 5 -18 174 l0 181 310 0 310 0 0 -161z m412 9 c53 -16 121 -78 144
-130 17 -39 19 -78 22 -376 2 -222 -1 -351 -8 -388 -15 -70 -61 -130 -125
-163 -45 -24 -62 -26 -197 -29 l-148 -4 0 50 0 51 149 3 c143 3 151 4 176 28
55 51 55 52 55 422 0 316 -1 346 -19 378 -33 62 -68 75 -223 78 l-138 4 0 44
0 44 136 0 c76 0 154 -5 176 -12z m-35 -208 c10 -19 13 -100 11 -343 -3 -302
-4 -319 -22 -333 -15 -10 -52 -14 -143 -14 l-123 0 0 360 0 361 132 -3 c130
-3 133 -3 145 -28z m-449 -40 l72 -13 0 -339 0 -339 -42 29 c-81 56 -117 62
-358 62 l-220 0 0 265 0 265 38 18 c39 20 149 57 192 66 41 8 240 -1 318 -14z
m-1153 -75 c39 -13 110 -29 159 -36 87 -11 270 -8 329 7 l27 6 0 -251 0 -251
-220 0 c-241 0 -277 -6 -357 -62 l-43 -29 0 327 c0 307 1 326 18 319 9 -3 49
-17 87 -30z m1090 -642 c22 -12 54 -36 72 -55 34 -35 67 -101 56 -112 -8 -8
-1308 -8 -1316 0 -11 11 22 77 56 112 37 39 78 63 127 73 19 4 244 7 500 6
456 -2 466 -2 505 -24z m135 -355 c0 -103 -15 -141 -67 -175 -25 -17 -67 -18
-578 -21 -359 -2 -562 0 -585 7 -20 6 -49 24 -65 41 -29 30 -30 36 -33 136
l-4 104 666 0 666 0 0 -92z"/>
<path d="M8343 2150 c-82 -19 -146 -94 -127 -149 7 -20 17 -27 42 -29 29 -3
34 1 47 32 17 40 41 56 84 56 56 0 81 55 39 84 -24 17 -36 18 -85 6z"/>
<path d="M8272 278 c-28 -28 -7 -78 33 -78 27 0 45 18 45 45 0 27 -18 45 -45
45 -12 0 -26 -5 -33 -12z"/>
<path d="M8512 278 c-28 -28 -7 -78 33 -78 27 0 45 18 45 45 0 27 -18 45 -45
45 -12 0 -26 -5 -33 -12z"/>
<path d="M8752 278 c-28 -28 -7 -78 33 -78 27 0 45 18 45 45 0 27 -18 45 -45
45 -12 0 -26 -5 -33 -12z"/>
<path d="M8992 278 c-28 -28 -7 -78 33 -78 27 0 45 18 45 45 0 27 -18 45 -45
45 -12 0 -26 -5 -33 -12z"/>
<path d="M9234 283 c-34 -25 -12 -83 32 -83 30 0 54 42 37 68 -11 18 -51 27
-69 15z"/>
<path d="M4134 2851 c-11 -5 -33 -23 -47 -41 -48 -56 -40 -94 63 -300 l90
-180 -76 0 c-86 0 -114 -11 -114 -44 0 -13 54 -101 130 -209 72 -102 130 -188
130 -191 0 -3 -34 -6 -75 -6 -43 0 -90 -6 -110 -14 -65 -27 -95 -119 -61 -185
19 -35 37 -50 81 -65 l35 -12 -66 -53 c-55 -44 -65 -57 -62 -79 2 -22 16 -34
80 -67 42 -22 79 -43 82 -46 5 -5 -22 -188 -120 -824 -22 -140 -34 -248 -31
-275 8 -62 39 -131 82 -178 68 -76 31 -72 713 -72 l609 0 38 26 c48 32 69 57
102 119 37 72 40 141 10 330 -14 88 -42 264 -61 390 -20 127 -38 242 -41 258
l-4 27 68 0 c43 0 72 -5 78 -12 6 -7 22 -101 37 -208 15 -107 34 -215 43 -239
33 -93 137 -166 226 -159 40 3 42 4 45 39 2 20 -13 182 -33 360 -39 354 -47
385 -111 438 -52 42 -96 51 -252 51 -158 0 -145 -7 -157 85 -3 28 -9 60 -12
73 -5 21 -2 22 53 22 98 0 157 51 157 135 0 89 -50 128 -175 135 l-88 5 135
194 c74 106 135 197 135 202 0 5 -9 18 -20 29 -16 16 -33 20 -80 20 l-60 0 55
103 c30 57 55 111 55 119 0 23 -112 155 -173 205 -144 118 -352 136 -532 46
-66 -33 -85 -51 -85 -79 0 -47 31 -47 127 -1 86 41 90 42 193 42 96 0 110 -3
165 -29 62 -30 189 -149 182 -169 -2 -6 -28 -20 -58 -31 -44 -17 -78 -20 -189
-20 -164 0 -156 -3 -530 169 -151 70 -300 136 -330 147 -61 22 -212 34 -246
19z m194 -96 c28 -9 179 -74 334 -146 364 -168 400 -180 553 -186 89 -4 135
-1 180 11 32 8 60 14 62 12 2 -1 -11 -28 -28 -59 l-31 -57 -529 0 -529 0 -95
190 c-52 104 -95 198 -95 208 0 10 5 23 12 30 17 17 104 15 166 -3z m1192
-521 c0 -4 -55 -85 -122 -180 l-122 -174 -425 0 -426 0 -105 151 c-58 84 -113
165 -123 180 l-19 29 671 0 c369 0 671 -3 671 -6z m34 -460 c9 -8 16 -22 16
-29 0 -7 -7 -21 -16 -29 -14 -14 -91 -16 -703 -16 -521 0 -690 3 -699 12 -7 7
-12 21 -12 33 0 12 5 26 12 33 9 9 178 12 699 12 612 0 689 -2 703 -16z m-909
-254 l45 -90 -205 0 c-201 0 -207 1 -256 26 -48 24 -50 26 -34 44 24 27 125
78 186 94 30 8 91 15 136 15 l83 1 45 -90z m365 84 c0 -4 -20 -45 -46 -90
l-45 -84 -64 0 -65 0 -45 90 -45 90 155 0 c85 0 155 -3 155 -6z m349 -61 c7
-38 14 -78 17 -90 l4 -23 -179 0 -179 0 46 90 47 90 116 0 117 0 11 -67z m35
-219 c3 -9 6 -29 6 -45 l0 -29 -550 0 -550 0 0 29 c0 66 -42 61 550 61 481 0
538 -2 544 -16z m415 -18 c17 -16 33 -37 36 -47 9 -27 74 -613 69 -618 -2 -3
-16 4 -31 15 -59 44 -65 62 -99 294 -43 287 -46 291 -199 300 l-90 5 -6 43 -6
43 148 -3 148 -3 30 -29z m-384 -183 c4 -21 10 -58 15 -83 5 -24 6 -48 4 -52
-3 -4 -270 -8 -595 -8 l-589 0 0 27 c0 14 5 55 11 90 l11 63 569 0 568 0 6
-37z m35 -245 c13 -31 90 -538 90 -592 0 -57 -45 -143 -89 -173 l-34 -23 -569
0 c-643 0 -614 -3 -667 77 -48 71 -48 101 -1 409 24 154 47 289 51 302 l9 22
600 0 600 0 10 -22z"/>
<path d="M4727 794 c-12 -12 -8 -51 7 -63 9 -8 52 -11 127 -9 l114 3 0 35 0
35 -121 3 c-66 1 -123 -1 -127 -4z"/>
<path d="M4738 529 c-21 -12 -24 -52 -4 -68 9 -8 52 -11 127 -9 l114 3 3 30
c6 45 -17 55 -127 55 -53 0 -104 -5 -113 -11z"/>
<path d="M4732 258 c-7 -7 -12 -21 -12 -33 0 -39 19 -45 130 -45 111 0 130 6
130 45 0 12 -5 26 -12 33 -16 16 -220 16 -236 0z"/>
</g>
</svg>
